<?xml version="1.0" encoding="utf-8"?>
<!-- Generator: Adobe Illustrator 23.0.6, SVG Export Plug-In . SVG Version: 6.00 Build 0)  -->
<svg version="1.1" id="Layer_1" xmlns="http://www.w3.org/2000/svg" xmlns:xlink="http://www.w3.org/1999/xlink" x="0px" y="0px"
	 viewBox="0 0 512 512" style="enable-background:new 0 0 512 512;" xml:space="preserve">
<style type="text/css">
	.st0{fill:#22B573;}
	.st1{fill:#754C24;stroke:#000000;stroke-width:5;stroke-miterlimit:10;}
	.st2{fill:#42210B;stroke:#000000;stroke-width:5;stroke-miterlimit:10;}
	.st3{fill:none;stroke:#000000;stroke-width:25;stroke-miterlimit:10;}
	.st4{stroke:#000000;stroke-width:5;stroke-miterlimit:10;}
	.st5{fill:#754C24;}
	.st6{fill:#534741;stroke:#000000;stroke-width:5;stroke-miterlimit:10;}
	.st7{fill:#FFFFFF;}
	.st8{fill:#006837;}
</style>
<g>
	<circle class="st0" cx="256" cy="257" r="256"/>
</g>
<path class="st1" d="M153.5,119.5c0,0-9-53,21-68s49,38,49,38"/>
<path class="st1" d="M297.5,89.5c0,0,19-46,51-36s14,61,14,61"/>
<g id="Layer_2">
	<path class="st1" d="M394.35,349.73c0,0,10.15-72.23,74.15-94.23c0,0,31,15,32,54s-87,138-87,138h-7.9L394.35,349.73z"/>
	<path class="st2" d="M402.5,323.5l15.67-28.57c0.62-1.13,2.55-1.49,3.01-0.29c8.33,21.85,45.33,40.85,78.33,3.85l-4.57,34.25
		c-0.62,4.67-4.1,10.96-7.71,13.98C454.92,373.74,404.49,341.45,402.5,323.5z"/>
	<path class="st3" d="M492.97,309.62"/>
	<path class="st3" d="M413.62,309.62"/>
	<path class="st2" d="M394.35,345.51c0,0,42.15,54.99,81.15,21.99c0,0-14.34,32.67-25,38c-26,13-51-19-51-19L394.35,345.51z"/>
	<path class="st4" d="M4.5,176.5"/>
</g>
<path class="st1" d="M171.13,304.8c0,0-26.63,103.7-18.63,168.7c3,4,36,28,97,28s134-27,152-42s-24-188-24-188"/>
<g>
	<path class="st5" d="M261,309.5c-84.64,0-153.5-49.79-153.5-111c0-19.57,7.15-38.81,20.69-55.65
		c13.23-16.46,32.2-30.28,54.86-39.97C206.58,92.82,233.53,87.5,261,87.5c84.64,0,153.5,49.79,153.5,111
		C414.5,259.71,345.64,309.5,261,309.5z"/>
	<path d="M261,90c83.26,0,151,48.67,151,108.5S344.26,307,261,307s-151-48.67-151-108.5c0-18.99,6.96-37.69,20.14-54.08
		c12.98-16.14,31.61-29.71,53.9-39.24C207.26,95.25,233.87,90,261,90 M261,85c-28.8,0-55.77,5.68-78.93,15.58
		C135.96,120.3,105,156.77,105,198.5c0,62.68,69.84,113.5,156,113.5s156-50.82,156-113.5S347.16,85,261,85L261,85z"/>
</g>
<path class="st1" d="M241.5,144.5c0,0-39.73,79.47-177.17,92.1c-5.55,0.51-8.27,7-4.79,11.35c16.98,21.22,68.52,66.95,194.97,61.55"
	/>
<path d="M62.16,251.09c23.66,2.59,16.01-16.03,16.01-16.03s-12.35,0.74-16.01,2.09c-3.66,1.35-6.63,2.74-4.14,7.04
	C60.5,248.5,62.16,251.09,62.16,251.09z"/>
<path class="st6" d="M133.5,201.5c0,0-13-73,40-77s185-31,185,29s-10,64-23,69s-66,16-77-11c-10.19-25.02-16.26-41.56-30.54-43.8
	c-2.1-0.33-4.23,0.29-5.92,1.59c-9.85,7.58-47.04,35.88-47.04,35.88l-24,11.31C151,216.47,134.5,215.5,133.5,201.5z"/>
<g>
	<path class="st7" d="M299,180.22c-2.06,0-6-5.11-6-13.11c0-8.01,3.94-13.11,6-13.11s6,5.11,6,13.11
		C305,175.12,301.06,180.22,299,180.22z"/>
	<path d="M299,144c-8.84,0-16,10.35-16,23.11s7.16,23.11,16,23.11s16-10.35,16-23.11S307.84,144,299,144L299,144z"/>
</g>
<g>
	<path class="st7" d="M171.13,180.55c-2.06,0-6-5.11-6-13.11c0-8.01,3.94-13.11,6-13.11s6,5.11,6,13.11
		C177.13,175.44,173.19,180.55,171.13,180.55z"/>
	<path d="M171.13,144.33c-8.84,0-16,10.35-16,23.11c0,12.76,7.16,23.11,16,23.11s16-10.35,16-23.11
		C187.13,154.67,179.96,144.33,171.13,144.33L171.13,144.33z"/>
</g>
<path class="st1" d="M203,260c0,0,41,76,76-4"/>
<g>
	<path class="st8" d="M256,21c31.87,0,62.77,6.24,91.86,18.54c28.1,11.89,53.34,28.9,75.02,50.58
		c21.68,21.68,38.7,46.92,50.58,75.02C485.76,194.23,492,225.13,492,257s-6.24,62.77-18.54,91.86
		c-11.89,28.1-28.9,53.34-50.58,75.02c-21.68,21.68-46.92,38.7-75.02,50.58C318.77,486.76,287.87,493,256,493
		s-62.77-6.24-91.86-18.54c-28.1-11.89-53.34-28.9-75.02-50.58c-21.68-21.68-38.7-46.92-50.58-75.02C26.24,319.77,20,288.87,20,257
		s6.24-62.77,18.54-91.86c11.89-28.1,28.9-53.34,50.58-75.02c21.68-21.68,46.92-38.7,75.02-50.58C193.23,27.24,224.13,21,256,21
		 M256,1C114.62,1,0,115.62,0,257s114.62,256,256,256s256-114.62,256-256S397.38,1,256,1L256,1z"/>
</g>
</svg>
